<svg width="113" height="116" viewBox="0 0 113 116" fill="none" xmlns="http://www.w3.org/2000/svg">
<g clip-path="url(#clip0_1_831)">
<path d="M93.3899 22.3289C93.5488 22.5253 94.5868 23.9735 94.7034 24.1488C97.2138 23.1179 99.4664 22.4447 101.5 22.4447C104.35 22.4447 106.683 22.4447 110.588 21.533V19.7131C108.396 20.1094 106.065 20.5827 104.551 20.5827C103.654 20.5827 103.396 20.4635 103.396 20.1655C103.396 19.9866 103.516 19.8674 103.855 19.7307C106.246 18.7208 110.532 17.0202 113.004 16.1296V13.7136C108.043 15.5335 99.3322 19.117 93.3934 22.3254L93.3899 22.3289Z" fill="white"/>
<path d="M66.6828 39.2721C65.4859 39.7875 62.7354 40.7764 60.0061 40.7764C58.6503 40.7764 57.5133 40.6571 56.2599 40.4993C54.7063 40.303 53.2305 40.1242 51.9735 40.1242C49.8797 40.1242 47.2916 40.3205 44.7777 42.0843L45.8723 43.5079C47.5847 42.6979 50.3564 42.3017 51.7299 42.3017C52.9868 42.3017 54.2826 42.4419 55.4761 42.5997C56.8319 42.7785 58.4066 42.9749 60.0591 42.9749C63.8052 42.9749 67.4737 40.9938 68.0493 40.6396C67.5903 40.2434 67.0112 39.6894 66.6723 39.2756L66.6828 39.2721Z" fill="white"/>
<path d="M46.5149 25.0219C46.5149 24.766 46.3948 24.5065 46.0983 24.3101C45.7593 24.0717 45.3427 23.9735 44.9613 23.9735C44.1245 23.9735 43.7856 24.4679 43.6267 24.9834C43.549 25.2218 43.5278 25.4602 43.5278 25.6566C43.5278 26.3684 43.8456 26.8628 44.3646 26.8628C45.0814 26.8628 46.5184 25.874 46.5184 25.0219H46.5149Z" fill="white"/>
<path d="M69.0344 49.9247C65.0481 54.0412 65.4083 56.4186 61.2031 58.021C60.1474 58.4173 58.8516 58.8521 57.1956 59.2272C56.2211 56.2398 53.7672 53.2698 51.1756 53.2698C49.3819 53.2698 47.3093 54.199 44.919 55.2509C42.1085 56.4782 39.538 57.8843 38.7224 58.4173L39.817 59.8829C40.6538 59.4271 43.0653 58.2384 45.4769 57.211C47.5706 56.3204 49.4631 55.5876 50.7378 55.5876C52.7892 55.5876 54.1273 57.9018 54.8617 59.7637C52.1713 60.3984 47.7472 60.5562 46.4125 60.5562C45.7946 60.5562 45.5757 60.6544 45.3568 60.8332C45.1555 61.012 44.9967 61.3276 44.8978 61.7624L44.7389 62.4356H46.1724C53.626 62.4356 60.6593 61.268 65.1858 58.5365C65.8249 58.7153 66.3828 58.8345 67.0995 58.8345C69.6911 58.8345 72.3604 57.4284 74.034 56.1416C74.6307 55.6857 74.772 55.272 74.772 54.8161C74.772 54.5987 74.7508 54.3989 74.7331 54.2025L74.6555 53.4311C72.2651 55.3105 70.2702 56.7166 67.7986 56.7166C67.3608 56.7166 67.043 56.6781 66.7817 56.5974C69.1933 52.7579 71.3471 49.3531 76.6256 46.5795C76.0678 46.2429 75.2698 45.7274 74.8532 45.4504C72.8018 46.3411 70.768 48.1223 69.0344 49.9247Z" fill="white"/>
<path d="M100.243 50.3981L101.221 51.0713C101.359 51.1695 101.461 51.2291 101.581 51.2291C101.779 51.2291 101.92 51.0328 101.92 50.8715C101.92 50.7733 101.881 50.6716 101.761 50.5734C98.852 47.9401 95.7237 44.7352 92.7931 41.646C90.5017 39.2125 88.1501 36.6388 86.0775 34.0441C85.9363 33.8652 85.8198 33.7881 85.6574 33.7881C85.4173 33.7881 85.2972 33.9459 85.2972 34.1247C85.2972 34.4017 85.495 34.7383 85.9963 35.5694C87.5111 38.122 89.3859 40.6958 91.6951 43.1117C94.1878 45.745 97.1149 48.1995 100.243 50.3946V50.3981Z" fill="white"/>
<path d="M42.3697 41.9862L41.2151 40.5029C36.7522 42.2071 31.7878 44.9561 31.7878 47.7683C31.7878 49.3707 32.9848 50.64 35.6753 50.64C39.6227 50.64 43.8279 48.6624 47.1928 46.8215L46.7126 46.1693C46.4336 45.7731 46.1935 45.6539 45.8157 45.6539C45.5756 45.6539 45.3179 45.7521 45.099 45.8502C42.2073 47.2563 39.079 48.6624 36.1696 48.6624C34.496 48.6624 34.0758 48.147 34.0758 47.4352C34.0758 45.4154 39.6156 43.0802 42.3661 41.9897L42.3697 41.9862Z" fill="white"/>
<path d="M60.804 51.0713C59.1092 51.0713 59.2681 48.1995 59.1516 45.9238C53.1739 46.4989 49.4277 48.2591 45.3214 50.4576L45.7981 52.2775C49.5266 50.0614 53.1139 48.7921 56.9201 48.4169C56.959 50.5944 57.8982 53.5047 60.3874 53.5047C63.0567 53.5047 66.305 49.3461 70.1112 44.4792L71.1069 43.1923C70.5879 42.7961 70.0124 42.4384 69.6522 42.1018C65.7471 47.0915 62.3576 51.0678 60.804 51.0678V51.0713Z" fill="white"/>
<path d="M52.7927 30.8601L51.8358 32.6799H62.0187L61.2631 30.8601H52.7927Z" fill="white"/>
<path d="M77.2083 10.4106C75.1957 8.48905 73.6598 6.31156 72.6853 5.26313C70.5138 2.9068 67.7033 -0.00354004 63.078 -0.00354004C58.4526 -0.00354004 55.6633 2.88577 54.7064 5.37884C54.4275 6.09065 54.2086 6.96375 54.0073 7.27933C53.5695 7.99114 51.5958 11.3363 50.7802 12.6652H54.4663L52.6727 16.0314C54.7664 15.5756 56.26 15.2389 58.2513 15.2389C60.0238 15.2389 61.302 15.6562 61.8598 16.7642C62.8979 18.8225 62.8979 25.057 64.6492 29.7486C66.2839 34.1632 70.2702 38.4796 74.7543 41.7827C74.8144 41.8213 74.8744 41.8423 74.9521 41.8423C75.171 41.8423 75.3122 41.6845 75.3122 41.5267C75.3122 41.4075 75.2734 41.3304 75.1745 41.2287C71.4283 37.5083 68.3777 33.3883 66.7429 28.8755C65.1294 24.4819 65.3871 18.3036 63.9712 15.5545C63.0356 13.7347 61.0407 13.2578 59.2082 13.2578C57.7323 13.2578 56.3588 13.5559 55.7197 13.6926L57.3333 10.9821H54.604C55.1831 9.97228 55.7798 9.04307 56.0799 8.48905C56.3376 8.01568 56.44 7.41959 56.7578 6.6096C57.7959 4.01484 60.0874 2.37383 63.0744 2.37383C66.8206 2.37383 69.0132 4.76872 71.1847 7.16362C72.1804 8.27166 73.8151 10.5894 75.7077 12.3111C77.0035 13.4998 79.475 14.8252 83.2812 18.7243C85.4739 20.9825 88.0231 23.9104 90.7136 27.8306C100.339 41.8248 106.659 54.1569 110.186 63.7786L110.126 63.8171C100.021 57.0076 91.2715 50.5733 84.2169 42.6383C79.2138 36.9964 74.8709 30.4639 71.0823 22.1291C70.8246 21.5751 70.6056 21.0596 70.3655 20.5267C70.2667 20.3093 70.1678 20.2496 70.0054 20.2496C69.8077 20.2496 69.6664 20.3899 69.6664 20.5863C69.6664 20.8037 69.7653 21.2805 69.9842 22.2308C71.9968 30.8601 77.579 38.6023 83.5355 45.0331C89.4743 51.4254 96.1899 56.9305 101.712 60.9278L106.016 73.1618C106.115 73.4598 106.235 73.7754 106.235 74.0735C106.235 74.2909 106.175 74.4697 106.037 74.5889C105.917 74.7081 105.758 74.7677 105.398 74.7677H104.102C103.545 74.7677 103.326 74.6871 103.124 74.5293C102.927 74.3715 102.785 74.1331 102.687 73.8561C102.309 72.7095 100.035 66.2752 99.5971 64.9673C99.5159 64.7288 99.3782 64.6517 99.2193 64.6517C99.0216 64.6517 98.8804 64.8095 98.8804 64.9883C98.8804 65.1461 98.9404 65.3249 99.0392 65.8789C99.6183 68.8068 100.296 72.0958 100.572 73.3406C100.692 73.9157 100.829 74.4487 100.829 74.8449C100.829 75.2025 100.748 75.3989 100.452 75.697L99.1169 77.0434C98.7991 77.359 98.6191 77.4397 98.3613 77.4397C98.0435 77.4397 97.7823 77.2223 97.6622 76.6682C96.1475 69.6413 93.856 60.9313 93.2593 58.5154C93.1216 57.9824 93.0192 57.6844 92.7014 57.6844C92.4225 57.6844 92.3236 57.8843 92.3236 58.1192C92.3236 58.298 92.3625 58.5154 92.3837 58.6732C92.7438 61.1663 94.1985 70.255 95.7732 78.5477C96.0522 79.9713 96.5889 80.7638 97.8246 80.7638C98.3825 80.7638 98.9192 80.5464 99.4206 80.0695C100.236 79.2595 100.476 79.0386 101.454 78.0883C102.153 77.4151 102.63 77.1381 103.827 77.1381H106.775C107.474 77.1381 107.852 76.9593 108.191 76.6437C108.509 76.3456 108.71 75.9319 108.71 75.3358C108.71 74.7397 108.551 74.2278 108.332 73.6141C107.573 71.5944 105.144 64.7674 104.427 62.8459L104.487 62.8073C106.98 64.6867 110.606 67.0816 112.199 67.0816C112.696 67.0816 112.997 66.8642 112.997 66.0928C112.997 62.4496 106.899 47.4666 92.9662 26.8382C85.5515 15.8526 79.0337 12.1498 77.2012 10.4071L77.2083 10.4106Z" fill="white"/>
<path d="M94.0854 10.4527H94.4032C94.4032 10.593 94.382 10.7508 94.382 10.8875C94.382 13.1246 95.5366 14.7867 98.3895 14.7867C100.144 14.7867 102.895 13.9171 105.483 13.044C107.637 12.3111 109.607 11.5608 110.585 11.2838V8.9064C109.469 9.24301 107.195 10.1126 104.844 10.9261C102.372 11.7782 99.9395 12.5496 98.5272 12.5496C96.9736 12.5496 96.5323 11.6975 96.5323 10.4913C96.5323 7.99823 98.107 4.41465 99.1027 2.3739H96.6912C95.4342 4.78984 90.4946 12.5285 87.8218 15.7369L89.3577 17.3815C90.7912 15.7965 92.3659 13.1071 94.0819 10.4527H94.0854Z" fill="white"/>
<path d="M111.026 90.6028C111.443 90.6028 111.764 90.4836 112.004 90.2872C112.262 90.0488 112.382 89.7332 112.382 89.2563V87.4155C112.382 86.7037 112.244 86.346 112.004 86.09C111.785 85.8516 111.425 85.7148 111.026 85.7148C110.709 85.7148 110.387 85.7534 109.851 85.813L93.9478 87.3769C93.4888 87.4155 93.2699 87.5557 93.111 87.7346C92.9309 87.9309 92.8533 88.1904 92.8533 88.5445V89.5754C92.8533 89.9717 92.9345 90.1505 93.0722 90.3083C93.2523 90.5046 93.51 90.6063 93.8701 90.6063H111.03L111.026 90.6028Z" fill="white"/>
<path d="M20.7082 71.5384C19.3735 72.3098 17.7176 72.6675 16.2629 72.6675C15.645 72.6675 15.366 72.7867 15.1471 73.0041C14.907 73.2425 14.787 73.5967 14.787 74.0911V74.7854H15.2848C17.9541 74.7854 20.4257 74.3681 23.1373 72.2502L31.9679 65.4021C33.2249 66.8257 36.392 68.8069 40.1382 68.8069C42.2496 68.8069 43.6054 68.2914 45.558 67.797C47.0727 67.4218 48.5486 67.0852 51.7757 67.0852H61.1218C65.906 67.0852 68.2187 66.0964 70.768 64.6693C76.3078 61.5801 81.032 56.3555 83.7013 50.356C83.0022 49.9212 82.3455 49.525 81.7876 49.1498C78.797 55.4053 74.2529 59.9566 69.5922 62.59C67.3819 63.8383 65.387 64.6482 61.083 64.6482H51.7757C48.4462 64.6482 46.3559 65.083 44.7212 65.5003C42.9664 65.9561 41.8506 66.412 40.0782 66.412C37.4477 66.412 35.015 65.1251 33.8392 63.8979L36.0319 62.1762L34.9373 60.7315C34.2982 61.1874 26.5057 66.9064 24.8745 68.1932L24.7756 68.1336C24.8145 67.7374 24.8145 67.3798 24.8145 67.0256C24.8145 62.6706 22.7807 61.6222 19.6913 60.3949L17.5975 61.6222C21.8415 63.0283 22.8973 64.1573 22.8973 67.3026C22.8973 69.7957 22.0004 70.788 20.7046 71.5384H20.7082Z" fill="white"/>
<path d="M18.9534 49.3286L19.0911 50.1807C19.1512 50.5383 19.2889 50.8329 19.589 50.9731C19.9491 51.152 20.4646 51.1695 21.3614 51.1695C23.6318 51.1695 25.2877 50.8925 26.2446 50.654C28.6949 54.2762 32.0633 55.6612 35.3117 55.6612C38.0798 55.6612 40.8903 54.6514 43.5808 53.1857L43.083 51.3834C40.4525 52.8491 37.7232 53.8168 35.3117 53.8168C32.6212 53.8168 30.2308 52.6702 28.2359 49.6793C27.3991 48.4134 26.7424 46.8285 25.9444 45.4224C24.9876 43.7604 23.9531 42.8698 22.1382 42.8698C20.4858 42.8698 18.8687 43.543 17.1562 44.2758L17.2375 44.651C17.3752 45.2646 17.6153 45.6994 18.1943 45.6994C18.4521 45.6994 18.7133 45.5802 18.851 45.5417C19.8079 45.2436 20.507 44.9876 21.4815 44.9876C22.975 44.9876 23.6953 45.8572 24.7087 47.9962L25.0864 48.7886C24.0484 49.1463 21.6192 49.3216 19.8044 49.3216H18.9464L18.9534 49.3286Z" fill="white"/>
<path d="M60.7264 5.72253C59.4306 5.72253 59.074 6.97083 59.074 7.66159C59.074 8.21561 59.2717 8.86781 59.9708 8.86781C60.5499 8.86781 61.2666 8.45054 61.8245 7.99821C62.3612 7.56341 62.7213 7.20576 62.7213 6.85161C62.7213 6.51499 62.4035 6.19941 61.9233 5.98201C61.5844 5.82422 61.1677 5.72604 60.7264 5.72604V5.72253Z" fill="white"/>
<path d="M87.7089 86.1672H85.3362C84.7183 86.1672 84.3016 86.3846 84.0015 86.7423C83.7614 87.0403 83.6025 87.4155 83.6025 87.931V113.84C83.6025 114.355 83.7614 114.731 84.0015 115.029C84.3016 115.386 84.7183 115.604 85.3362 115.604H87.7089C88.3268 115.604 88.7469 115.386 89.0435 115.029C89.2836 114.731 89.4425 114.355 89.4425 113.84V87.931C89.4425 87.4155 89.2836 87.0403 89.0435 86.7423C88.7434 86.3846 88.3268 86.1672 87.7089 86.1672Z" fill="white"/>
<path d="M67.4208 90.2838C67.6785 90.0453 67.7986 89.7297 67.7986 89.2529V87.5102C67.7986 87.0368 67.6785 86.7177 67.4208 86.4793C67.1807 86.2829 66.8629 86.1637 66.4427 86.1637H21.0048C20.2457 86.1637 19.769 86.4197 19.43 86.8159C19.1511 87.1525 18.9922 87.5277 18.9922 88.1834V106.157H18.8934C18.8934 106.157 8.98944 88.6182 8.50925 87.8082C8.17029 87.2332 7.79249 86.8369 7.29465 86.5424C6.79681 86.2654 6.27778 86.0865 5.28209 86.0865H2.01256C1.25344 86.0865 0.776778 86.3425 0.43782 86.7387C0.158886 87.0754 0 87.4506 0 88.1028V113.581C0 114.233 0.158886 114.611 0.43782 114.948C0.776778 115.344 1.25344 115.6 2.01256 115.6H3.86624C4.62183 115.6 5.10202 115.344 5.44098 114.948C5.71991 114.611 5.8788 114.236 5.8788 113.581V95.1717H5.97766C5.97766 95.1717 16.2629 113.265 16.6795 113.938C17.2586 114.888 18.2331 115.6 19.6278 115.6H22.7984C23.554 115.6 24.0342 115.344 24.3732 114.948C24.6521 114.611 24.811 114.236 24.811 113.581V90.5993H66.4427C66.8629 90.5993 67.1807 90.4801 67.4208 90.2838Z" fill="white"/>
<path d="M37.6067 93.6289C30.6898 93.6289 26.8059 98.9938 26.8059 104.653C26.8059 110.691 30.9723 115.996 37.649 115.996C40.9786 115.996 44.2446 114.748 46.1194 112.553C46.935 111.603 47.5953 110.277 47.5953 109.464C47.5953 109.187 47.5353 108.949 47.3764 108.77C47.2175 108.573 46.9774 108.454 46.5608 108.454H43.3513C42.7122 108.454 42.2744 108.693 41.9566 109.166C41.0209 110.533 39.6651 111.245 37.6702 111.245C34.6796 111.245 32.7483 108.987 32.607 106.515H46.4796C47.0975 106.515 47.5353 106.375 47.8354 106.08C48.1744 105.765 48.3332 105.309 48.3332 104.457C48.3332 101.866 47.5176 99.1726 45.8017 97.1143C44.0468 95.035 41.3776 93.6289 37.6102 93.6289H37.6067ZM32.6459 102.3C32.9036 99.8669 34.7785 98.0435 37.6278 98.0435C40.4772 98.0435 42.3521 99.8634 42.6098 102.3H32.6459Z" fill="white"/>
<path d="M11.5387 8.73101C10.423 7.87894 9.16603 7.18817 7.69369 6.59208C7.59482 6.55351 7.51361 6.53247 7.43594 6.53247C7.21703 6.53247 7.11816 6.69026 7.11816 6.83052C7.11816 6.94974 7.157 7.04792 7.33707 7.20571C9.0707 8.6714 12.4179 11.4625 13.456 12.3111L14.2928 11.3608C13.3959 10.3124 12.4779 9.43931 11.5423 8.7275L11.5387 8.73101Z" fill="white"/>
<path d="M0.797935 68.5089C2.29147 68.5089 2.47154 67.6182 2.47154 66.7661C2.47154 66.1911 2.45035 65.5389 2.45035 64.8271C2.47154 63.1826 2.53156 61.7204 5.20085 60.5317C6.27775 60.0583 11.5598 57.9194 15.4826 56.2574C16.6371 55.7629 17.714 55.3457 18.911 55.3457C20.2456 55.3457 21.7815 55.9207 23.6952 57.0463C25.3088 57.9965 27.0036 59.2834 28.3382 60.7666L30.033 59.4798C28.5783 57.7756 26.5658 56.2538 24.5532 55.0652C22.5407 53.8765 20.747 53.1857 19.2323 53.1857C18.5756 53.1857 18.0353 53.3049 17.5763 53.4241C17.0397 53.5644 16.5383 53.7222 15.9027 53.7222C15.1648 53.7222 14.5469 53.5434 13.6501 52.516C13.3111 52.1408 11.1573 49.7038 10.7019 48.992C10.4829 48.6554 10.084 47.9822 10.084 47.1897C10.084 46.8531 10.144 46.4569 10.3417 46.1027C12.1954 47.5263 14.4869 48.3994 17.2762 48.736L16.8984 46.8566C12.8945 45.8082 8.62927 42.3052 8.62927 40.0471C8.62927 39.5737 8.74932 39.2336 8.92939 38.8198C10.4829 40.2434 14.1303 41.7302 16.104 41.7302C17.1809 41.7302 18.0565 41.3725 18.8933 41.0359C19.6913 40.7203 20.4893 40.4012 21.5626 40.4012C24.1154 40.4012 27.2613 41.6285 30.033 42.7961C30.1919 42.8557 30.372 42.8943 30.5521 42.8943C30.9899 42.8943 31.3288 42.698 31.5477 42.2807L31.9079 41.6285C28.8573 39.8683 23.9953 37.9853 21.4638 37.9853C20.3092 37.9853 19.4724 38.2833 18.6744 38.5989C17.7776 38.9566 17.0008 39.3318 16.1817 39.3318C14.1691 39.3318 9.00707 37.3506 9.00707 35.4326C9.00707 33.1745 17.2197 32.3049 18.113 32.3049L18.9286 30.464C12.9686 30.464 5.87524 32.5433 5.87524 35.2924C5.87524 36.0848 6.33424 36.481 6.33424 37.2139C6.33424 38.2027 5.87524 38.8759 5.87524 39.984C5.87524 40.7168 6.31306 41.646 6.83209 42.4595C7.38996 43.3116 8.04669 43.8656 8.04669 44.5774C8.04669 45.1104 7.68654 45.7451 7.68654 46.9933C7.68654 49.6652 9.22244 51.2887 12.2095 54.4761L12.8062 55.1107C10.3346 56.061 5.73047 58.0386 4.65358 58.4945C0.925044 60.0373 -0.0106201 61.9202 -0.0106201 64.8867C-0.0106201 66.0333 -0.0106201 67.3412 0.0670577 68.5089H0.783812H0.797935Z" fill="white"/>
<path d="M102.238 93.6289C95.3213 93.6289 91.4374 98.9938 91.4374 104.653C91.4374 110.691 95.6037 115.996 102.28 115.996C105.61 115.996 108.876 114.748 110.751 112.553C111.567 111.603 112.227 110.277 112.227 109.464C112.227 109.187 112.167 108.949 112.008 108.77C111.849 108.573 111.609 108.454 111.192 108.454H107.983C107.344 108.454 106.906 108.693 106.588 109.166C105.652 110.533 104.297 111.245 102.302 111.245C99.3111 111.245 97.3797 108.987 97.2385 106.515H111.15C111.768 106.515 112.206 106.375 112.506 106.08C112.845 105.765 113.004 105.309 113.004 104.457C113.004 101.866 112.188 99.1726 110.472 97.1143C108.717 95.035 106.009 93.6289 102.242 93.6289H102.238ZM97.2738 102.3C97.5316 99.8669 99.4064 98.0435 102.256 98.0435C105.105 98.0435 106.98 99.8634 107.238 102.3H97.2738Z" fill="white"/>
<path d="M50.3634 20.1515C49.3854 20.3514 48.6687 20.5267 47.8107 20.5267C47.2528 20.5267 46.6137 20.446 45.8581 20.2707C45.2791 20.134 44.6612 20.0148 43.7856 20.0148C42.2108 20.0148 40.516 20.6073 39.3615 21.7189C37.25 23.7176 37.13 25.874 36.9887 27.7955C36.8087 30.3482 36.332 30.9829 34.9373 32.8448C33.8004 34.3701 32.2469 36.3688 31.0499 38.4867C31.4277 38.6655 32.6847 39.3387 33.1225 39.5772C34.4995 37.5189 36.4097 34.9837 37.6667 33.0657C38.8036 31.323 39.2626 30.5726 39.3403 28.2374C39.3614 27.8411 39.3614 27.4659 39.4003 27.0907C39.4991 25.8845 39.8205 24.6573 40.975 23.5282C41.833 22.6761 43.0688 22.2413 44.3046 22.2413C45.5404 22.2413 46.1971 22.578 47.2352 22.578C47.9731 22.578 48.5098 22.3991 48.99 22.2203L49.3678 22.08L48.4498 24.2575L50.6035 25.1271C49.2265 25.9792 46.2183 29.6399 46.2183 33.9739C46.2183 35.5378 46.4584 36.9824 46.7973 38.2693C46.8362 38.406 46.9174 38.5463 47.1363 38.5463C47.334 38.5463 47.4752 38.4271 47.4964 38.2097L47.5176 37.7538C47.5776 36.4284 47.6765 34.328 48.2167 32.4486C49.1135 29.2823 51.5251 26.3123 53.9366 24.8887L50.5082 23.4055L51.9841 19.8219L50.3705 20.1585L50.3634 20.1515Z" fill="white"/>
<path d="M62.9579 102.953L58.4349 101.806C56.56 101.333 55.6844 100.996 55.6844 99.8458C55.6844 98.6957 56.6801 97.8472 58.9928 97.8472C60.3486 97.8472 61.5844 98.1452 62.3823 98.9762C63.0391 99.6705 62.919 100.025 63.4381 100.302C63.7558 100.459 64.116 100.459 64.6738 100.459H66.9265C67.2866 100.459 67.5444 100.4 67.7421 100.182C67.901 100.004 67.9999 99.7266 67.9999 99.2708C67.9999 98.2399 67.322 96.9144 66.125 95.9046C64.5291 94.5406 62.0187 93.6289 58.9892 93.6289C53.5271 93.6289 49.9433 96.2026 49.9433 100.319C49.9433 101.785 50.48 102.97 51.3592 103.903C52.376 104.99 53.8307 105.744 55.9422 106.277L60.5075 107.423C61.7645 107.739 62.8802 108.118 62.8802 109.205C62.8802 110.888 61.0865 111.463 59.1728 111.463C58.2372 111.463 57.2592 111.284 56.4612 110.888C55.9033 110.611 55.4231 110.214 55.0842 109.681C54.7841 109.226 54.6852 108.889 54.2262 108.633C53.9473 108.475 53.6083 108.454 53.1493 108.454H50.6777C50.141 108.454 49.8798 108.612 49.6997 108.829C49.5196 109.047 49.4596 109.362 49.4596 109.681C49.4596 110.474 49.7385 111.463 50.3953 112.353C51.91 114.373 55.0771 115.996 59.1234 115.996C63.1697 115.996 68.6284 114.352 68.6284 109.05C68.6284 107.683 68.2294 106.515 67.4914 105.565C66.5558 104.359 65.2211 103.528 62.9473 102.953H62.9579Z" fill="white"/>
<path d="M80.7355 94.3828H77.127V87.931C77.127 87.4155 76.9681 87.0403 76.728 86.7423C76.4279 86.3846 76.0113 86.1672 75.3934 86.1672H73.1407C72.5228 86.1672 72.1027 86.3846 71.8061 86.7423C71.566 87.0403 71.4071 87.4155 71.4071 87.931V94.3828H70.2914C69.8712 94.3828 69.5534 94.502 69.3133 94.6984C69.0556 94.9368 68.9355 95.2524 68.9355 95.7293V97.0933C68.9355 97.5702 69.0556 97.8858 69.3133 98.1242C69.5534 98.3205 69.8712 98.4398 70.2914 98.4398H71.4071V108.317C71.4071 110.853 72.1062 112.434 73.3985 113.7C74.5954 114.867 76.149 115.6 78.8607 115.6H80.5554C80.9756 115.6 81.2934 115.481 81.5299 115.285C81.7877 115.046 81.9501 114.731 81.9501 114.254V112.532C81.9501 112.059 81.7912 111.74 81.5299 111.501C81.2898 111.305 80.9721 111.186 80.5554 111.186H80.3153C79.2384 111.186 78.5005 110.909 78.0027 110.435C77.406 109.881 77.1058 109.029 77.1058 107.921V98.4398H80.732C81.1521 98.4398 81.4699 98.3205 81.71 98.1242C81.9678 97.8858 82.0878 97.5702 82.0878 97.0933V95.7293C82.0878 95.2524 81.9678 94.9368 81.71 94.6984C81.4699 94.502 81.1521 94.3828 80.732 94.3828H80.7355Z" fill="white"/>
<path d="M26.6047 23.8332C23.7942 27.1398 22.3183 29.8117 19.8679 35.7516C20.2669 35.713 20.846 35.671 21.4815 35.671C21.7993 35.671 22.0606 35.671 22.4772 35.692L22.7773 35.0573C24.1508 32.126 26.0045 28.1672 28.5961 25.1201L29.4929 24.0717C32.1622 20.965 33.8181 19.1241 34.8527 14.8883C35.2128 13.384 35.5094 12.0376 36.5263 11.0663C37.4443 10.1967 38.5989 9.81799 39.7746 9.81799C40.7703 9.81799 41.5082 10.0564 42.5851 10.5123C43.5632 10.9295 43.9198 11.0067 44.9578 11.0067C45.318 11.0067 45.5757 10.9856 45.8158 10.9681L44.4212 12.83L46.3137 14.1555C43.941 14.8497 42.6875 17.1254 42.2674 18.1738C42.1862 18.3912 42.1473 18.5315 42.1473 18.6682C42.1473 18.826 42.2285 18.9838 42.4651 18.9838C42.7228 18.9838 42.9241 18.7875 43.2631 18.3912C44.4176 17.0062 45.3356 16.0559 49.6009 14.7305L46.5926 12.4724L48.8629 9.1658H46.7303C45.3745 9.1658 44.4777 9.14476 43.3019 8.61178C41.706 7.87893 40.8904 7.56335 39.4745 7.56335C37.7409 7.56335 36.1661 8.17698 34.8703 9.36566C33.3768 10.7332 32.9178 12.553 32.3776 14.5517C31.9574 16.0945 31.4596 17.7986 30.3438 19.3625C29.4082 20.688 28.7303 21.3437 26.5976 23.8367L26.6047 23.8332Z" fill="white"/>
<path d="M17.4387 16.6871C18.4944 18.2124 20.2669 21.1614 21.944 25.0816C22.2442 24.5871 23.141 23.3809 23.4976 23.0022C21.9617 19.9131 19.4513 16.9642 18.3567 15.7965L17.4387 16.6871Z" fill="white"/>
<path d="M41.0139 14.0749C41.5505 13.7593 42.0095 13.3035 42.0095 12.8266C42.0095 12.6092 41.9107 12.3918 41.6918 12.1919C41.314 11.8343 40.7949 11.6589 40.3571 11.6589C39.3614 11.6589 38.8424 12.5881 38.8424 13.4402C38.8424 14.0924 39.1602 14.4711 39.7781 14.4711C40.1559 14.4711 40.5937 14.3133 41.0139 14.0749Z" fill="white"/>
<path d="M7.11462 22.862C7.11462 23.0022 7.21349 23.1776 7.4324 23.1776C7.5701 23.1776 7.69015 23.118 7.95143 23.0198L15.2461 20.5653L14.8859 19.3766C11.9165 19.871 9.76273 20.6249 7.31235 22.5254C7.17112 22.6446 7.11462 22.7252 7.11462 22.862Z" fill="white"/>
<path d="M9.34605 16.4101C4.46294 16.4101 2.39036 18.7454 2.39036 20.3092C0.935664 20.9018 0 22.5078 0 23.991C0 26.9399 2.17145 29.0403 5.04199 29.0403C5.99884 29.0403 6.97688 28.6651 7.65126 28.1496C8.14911 28.3285 8.78818 28.4266 9.44491 28.4266C10.8219 28.4266 12.3543 27.9533 13.4312 26.3894C13.5901 26.4104 13.7313 26.4104 13.8902 26.4104C15.645 26.4104 17.1597 25.2638 17.9577 23.7596C18.1554 23.3844 18.2366 23.0863 18.2366 22.8689C18.2366 22.6515 18.1378 22.4727 17.9189 22.4727C17.6399 22.4727 17.6011 22.7287 17.1032 23.1845C15.9875 24.1944 14.2751 24.5696 12.5202 24.5696C11.6623 25.8179 10.6065 26.47 9.39195 26.47C8.49513 26.47 7.79603 26.2316 7.07927 25.7582C6.50022 26.3929 5.78346 26.6489 5.0879 26.6489C3.51315 26.6489 2.39742 25.5619 2.39742 23.977C2.39742 22.8689 3.11417 21.8801 4.10986 21.5014C4.28993 19.5413 6.40136 18.2159 9.03181 18.2159C9.37077 18.2159 9.70972 18.2369 10.0663 18.2755C10.4653 17.6408 11.4222 16.9676 12.778 16.7923C13.0569 16.7537 13.2758 16.7327 13.4347 16.652C13.5936 16.5714 13.6748 16.4136 13.6748 16.2348C13.6748 16.077 13.6148 15.9367 13.4559 15.8385C13.3182 15.7579 13.0781 15.7193 12.7992 15.6597C11.5422 15.4213 10.0487 14.6498 9.29309 12.7704C6.28484 12.7704 4.07102 10.3755 4.07102 7.68255V7.50372C3.07533 7.1075 2.39742 6.15725 2.39742 5.02818C2.39742 3.54495 3.57318 2.35627 5.06671 2.35627C5.96354 2.35627 6.74031 2.79107 7.23816 3.44327C7.65832 3.32405 8.13498 3.28548 8.59399 3.28548C10.8255 3.28548 13.2193 4.69156 13.6748 7.42308C16.5454 7.67905 17.2233 10.095 17.3998 11.1048C17.4987 11.6203 17.5799 12.0551 17.9189 12.0551C18.279 12.0551 18.3567 11.6589 18.4767 11.1259C18.6956 10.116 19.0734 9.30603 19.8326 8.67137C19.8326 6.0766 21.7851 3.843 24.5568 3.843C24.9769 2.93133 25.8914 2.30017 26.9895 2.30017C28.483 2.30017 29.68 3.44677 29.68 4.97207C29.68 5.86271 29.2598 6.63413 28.6031 7.111C28.7443 7.62645 28.8432 8.08229 28.8432 8.51708C28.8432 10.1791 27.8475 11.3468 26.015 11.9604C25.7749 12.9703 25.3371 13.8819 24.6203 14.5552C23.4234 15.7018 22.2088 15.7018 22.2088 16.1787C22.2088 16.4346 22.3889 16.5959 22.8867 16.5959C25.1005 16.5959 27.272 15.3687 27.5297 13.3279C29.6411 12.6161 30.9193 10.4982 30.9193 8.81513C30.9193 8.38033 30.8805 8.00164 30.7004 7.64749C31.2794 7.09347 31.9573 6.14323 31.9573 4.73714C31.9573 3.50989 31.4207 2.2616 30.4638 1.35343C29.627 0.539937 28.4513 0.00695801 27.0742 0.00695801C25.0829 0.00695801 23.7871 1.07642 23.0491 2.12485C20.8777 2.12485 18.0671 4.51974 18.0671 7.94553H17.767C17.5693 6.75685 16.3335 5.9644 15.2955 5.90829C14.4587 3.41522 12.5661 1.27629 9.45551 1.27629C9.09536 1.27629 8.65754 1.29733 8.27975 1.35694C7.36174 0.525911 6.34486 0.0104644 4.93254 0.0104644C2.21382 -5.48689e-05 0 2.1564 0 4.88792C0 6.59205 0.776778 7.75969 2.25266 8.78708C2.25266 8.78708 2.23147 9.00448 2.23147 9.10266C2.23147 11.2802 4.62183 14.6849 8.17029 14.6849C8.17029 15.2389 8.86939 15.9928 9.64617 16.1296V16.4066H9.34605V16.4101Z" fill="white"/>
<path d="M25.909 6.84805C25.909 6.69026 25.7713 6.53247 25.5701 6.53247C25.39 6.53247 25.2911 6.65169 25.1111 6.78844C24.3555 7.44064 23.6776 8.09634 22.9608 8.90633C21.9439 10.0354 21.086 11.5397 20.3904 13.1807L21.4673 13.8329C22.2052 12.7459 24.5744 9.02204 25.7925 7.14259C25.8737 7.02337 25.9126 6.92519 25.9126 6.84454L25.909 6.84805Z" fill="white"/>
</g>
<defs>
<clipPath id="clip0_1_831">
<rect width="113" height="116" fill="white"/>
</clipPath>
</defs>
</svg>
