<svg width="19" height="27" viewBox="0 0 19 27" fill="none" xmlns="http://www.w3.org/2000/svg">
<path d="M17.9999 9.50828C17.9999 4.80925 14.1943 1 9.49994 1C4.80557 1 1 4.80925 1 9.50828C1 11.0977 1.43547 12.5852 2.1934 13.858L9.17134 25.8139C9.31637 26.062 9.68363 26.062 9.82866 25.8139L16.8066 13.858C17.5645 12.5852 17.9999 11.0976 17.9999 9.50828ZM9.49994 13.8154C7.1235 13.8154 5.19701 11.8871 5.19701 9.50828C5.19701 7.1295 7.1235 5.20113 9.49994 5.20113C11.8764 5.20113 13.8029 7.1295 13.8029 9.50828C13.8029 11.8871 11.8764 13.8154 9.49994 13.8154Z" stroke="white" stroke-width="1.4"/>
</svg>
